<svg width="180" height="180" viewBox="0 0 180 180" fill="none" xmlns="http://www.w3.org/2000/svg">
  <rect width="180" height="180" rx="36" fill="#C7E738"/>
  <g transform="translate(48, 28) scale(4.24)">
    <path d="M13.9918 1.44019V7.70147C12.9219 7.09911 11.636 6.79355 10.1636 6.79355C7.31926 6.79355 4.74754 7.88547 2.924 9.86779C1.01102 11.9476 0 14.8521 0 18.2691C0 23.3092 2.7146 28.3953 8.77963 28.3953C10.7919 28.3953 12.7823 27.3702 13.9918 25.7471V27.8401H19.7907V0H18.4383L13.9918 1.44019ZM6.01813 16.8004C6.01813 12.3408 7.6999 9.34428 10.2018 9.34428C12.7037 9.34428 13.9907 11.3726 13.9907 15.3712V23.7506C13.0091 24.5994 12.0504 24.9312 10.5966 24.9312C9.14281 24.9312 7.92566 24.0978 7.11204 22.4528C6.4064 21.0257 6.01704 19.0182 6.01704 16.8004H6.01813Z" fill="#003A30"/>
  </g>
</svg>
